<svg width="17" height="17" viewBox="0 0 17 17" fill="none" xmlns="http://www.w3.org/2000/svg">
<g clip-path="url(#clip0)">
<path d="M14.2766 2.62949H2.02661C0.992736 2.62949 0.151611 3.47061 0.151611 4.50449V12.5045C0.151611 13.5384 0.992736 14.3795 2.02661 14.3795H14.2766C15.3105 14.3795 16.1516 13.5384 16.1516 12.5045V4.50449C16.1516 3.47061 15.3105 2.62949 14.2766 2.62949ZM14.9016 12.5045C14.9016 12.8491 14.6212 13.1295 14.2766 13.1295H2.02661C1.68199 13.1295 1.40161 12.8491 1.40161 12.5045V4.50449C1.40161 4.15986 1.68199 3.87949 2.02661 3.87949H14.2766C14.6212 3.87949 14.9016 4.15986 14.9016 4.50449V12.5045Z" fill="white"/>
<path d="M14.7953 3.40875L8.15141 8.35052L1.50754 3.40875L0.761475 4.41172L8.15141 9.90839L15.5413 4.41172L14.7953 3.40875Z" fill="white"/>
</g>
<defs>
<clipPath id="clip0">
<rect width="16" height="16" fill="white" transform="translate(0.151611 0.504486)"/>
</clipPath>
</defs>
</svg>
