<svg width="209" height="30" viewBox="0 0 209 30" fill="none" xmlns="http://www.w3.org/2000/svg">
<path d="M16.1768 26.938C18.854 28.7679 21.3071 29.8741 21.419 29.9242C21.5315 29.9746 21.6523 30 21.7728 30L21.8015 20.9341C20.9358 20.9341 20.1025 20.795 19.3231 20.5379L16.1768 26.938Z" fill="url(#paint0_linear)"/>
<path d="M20.5942 0.752777L9.92796 3.95264C9.56156 4.06252 9.31079 4.39973 9.31079 4.78218L13.9349 12.21C14.3024 8.62559 17.0639 5.75035 20.5942 5.20959V0.752777Z" fill="url(#paint1_linear)"/>
<path d="M11.3071 22.5856C11.9556 23.4132 12.7632 24.2428 13.7203 25.0653L14.9911 22.4583L10.1779 14.7639C10.1779 14.7639 9.39518 15.6356 9.66011 16.8639C10.0159 18.5133 11.4905 19.9467 11.4905 19.9467L9.97373 20.4304C10.2994 21.1478 10.7443 21.8674 11.3071 22.5856Z" fill="url(#paint2_linear)"/>
<path d="M27.38 26.938C24.7028 28.7679 22.2497 29.8741 22.1379 29.9242C22.0253 29.9746 21.9045 30 21.784 30L21.7554 20.9341C22.621 20.9341 23.4543 20.795 24.2337 20.5379L27.38 26.938Z" fill="url(#paint3_linear)"/>
<path d="M22.9626 0.752777L33.6289 3.95264C33.9953 4.06252 34.246 4.39973 34.246 4.78218L29.6219 12.21C29.2544 8.62559 26.4929 5.75035 22.9626 5.20959V0.752777Z" fill="url(#paint4_linear)"/>
<path d="M32.2497 22.5856C31.6013 23.4132 30.7936 24.2428 29.8366 25.0653L28.5657 22.4583L33.3789 14.7639C33.3789 14.7639 34.1616 15.6356 33.8967 16.8639C33.5409 18.5133 32.0663 19.9467 32.0663 19.9467L33.5831 20.4304C33.2575 21.1478 32.8125 21.8674 32.2497 22.5856Z" fill="url(#paint5_linear)"/>
<mask id="mask0" mask-type="alpha" maskUnits="userSpaceOnUse" x="0" y="0" width="44" height="27">
<path d="M12.8774 26.7955L16.1171 20.1498L16.3727 19.5746L16.6655 18.8424H26.9646L27.2421 19.5746L27.4496 20.1507L30.6859 26.7483L43.3085 26.7955V0L23.0602 0.00143956L20.4534 0H0.202148V26.7483L12.8774 26.7955Z" fill="#C4C4C4"/>
</mask>
<g mask="url(#mask0)">
<path fill-rule="evenodd" clip-rule="evenodd" d="M34.6821 6.22522L34.1359 7.10342L34.2676 7.18539L36.0803 8.31282L36.2121 8.39479L36.7583 7.51659L36.1505 7.13852L35.2899 6.60329L34.6821 6.22522ZM37.3824 6.08773L36.3107 7.00187L35.3417 6.39919L35.6877 5.0337L38.4374 2.50214L37.3824 6.08773ZM34.1395 7.39142L30.9046 12.5926L32.7173 13.7201L35.9522 8.51885L34.1395 7.39142ZM30.7923 12.7732L32.605 13.9006L32.7367 13.9826L32.2025 14.8416L32.0332 14.7364L30.2954 13.6555L30.1262 13.5503L30.6605 12.6912L30.7923 12.7732ZM30.1804 13.8403L18.07 33.3117L19.8079 34.3926L31.9183 14.9212L30.1804 13.8403ZM19.8645 34.7754L19.652 34.6432L17.9141 33.5623L17.7016 33.4302L17.2745 34.1169L17.5462 34.2859C17.3136 34.7257 17.4579 35.2769 17.8869 35.5437C18.3158 35.8105 18.874 35.6962 19.1657 35.2931L19.4374 35.4621L19.8645 34.7754Z" fill="url(#paint6_linear)"/>
<path fill-rule="evenodd" clip-rule="evenodd" d="M41.2502 7.83035C42.5177 10.067 42.5542 12.9089 41.1009 15.2456C39.6476 17.5823 37.0823 18.806 34.5158 18.658C34.3393 18.9081 34.1395 19.1333 33.9211 19.3323C34.6073 19.4323 35.2994 19.4405 35.9793 19.3612L36.2157 18.9811L36.6274 19.2584C36.9023 19.2032 37.1741 19.1334 37.4418 19.0494L37.3666 18.7406L37.6694 18.9742C39.3224 18.4004 40.797 17.2777 41.7931 15.6761C42.7892 14.0745 43.1442 12.2555 42.9281 10.5191L42.5847 10.3509L42.8949 10.2818C42.8519 10.0046 42.7943 9.72986 42.7223 9.45886L42.2916 9.21222L42.528 8.83213C42.2985 8.18719 41.9851 7.5701 41.5921 6.99881C41.5101 7.28267 41.3965 7.56147 41.2502 7.83035Z" fill="url(#paint7_linear)"/>
<path d="M41.0742 8.12453C42.2094 10.2463 42.2117 12.8991 40.8495 15.0892C39.4874 17.2794 37.1068 18.4502 34.7019 18.3701C35.8067 16.4988 35.2785 14.0969 33.5118 12.8575L35.6035 9.4944C37.4963 10.5311 39.8842 9.94292 41.0742 8.12453Z" fill="url(#paint8_linear)"/>
<path fill-rule="evenodd" clip-rule="evenodd" d="M8.96122 6.22522L9.50742 7.10342L9.37563 7.18539L7.56293 8.31282L7.43114 8.39479L6.88493 7.51659L7.4928 7.13852L8.35334 6.60329L8.96122 6.22522ZM6.26084 6.08773L7.3326 7.00187L8.30161 6.39919L7.95553 5.0337L5.20587 2.50214L6.26084 6.08773ZM9.50377 7.39142L12.7387 12.5926L10.926 13.7201L7.69107 8.51885L9.50377 7.39142ZM12.851 12.7732L11.0383 13.9006L10.9065 13.9826L11.4408 14.8416L11.61 14.7364L13.3479 13.6555L13.5171 13.5503L12.9828 12.6912L12.851 12.7732ZM13.4628 13.8403L25.5733 33.3117L23.8354 34.3926L11.725 14.9212L13.4628 13.8403ZM23.7788 34.7754L23.9913 34.6432L25.7292 33.5623L25.9416 33.4302L26.3688 34.1169L26.0971 34.2859C26.3297 34.7257 26.1854 35.2769 25.7564 35.5437C25.3275 35.8105 24.7692 35.6962 24.4776 35.2931L24.2059 35.4621L23.7788 34.7754Z" fill="url(#paint9_linear)"/>
<path fill-rule="evenodd" clip-rule="evenodd" d="M2.39313 7.83035C1.1256 10.067 1.08907 12.9089 2.5424 15.2456C3.99572 17.5823 6.56095 18.806 9.12749 18.658C9.30397 18.9081 9.50381 19.1333 9.72216 19.3323C9.03597 19.4323 8.34392 19.4405 7.66397 19.3612L7.42757 18.9811L7.01589 19.2584C6.74101 19.2032 6.46914 19.1334 6.2015 19.0494L6.27664 18.7406L5.97391 18.9742C4.32089 18.4004 2.84631 17.2777 1.85019 15.6761C0.854066 14.0745 0.499037 12.2555 0.715172 10.5191L1.05858 10.3509L0.748355 10.2818C0.791366 10.0046 0.848988 9.72986 0.920931 9.45886L1.35167 9.21222L1.11528 8.83213C1.34479 8.18719 1.65816 7.5701 2.05119 6.99881C2.13321 7.28267 2.24681 7.56147 2.39313 7.83035Z" fill="url(#paint10_linear)"/>
<path d="M2.56906 8.12453C1.43389 10.2463 1.43157 12.8991 2.79375 15.0892C4.15592 17.2794 6.53644 18.4502 8.94141 18.3701C7.83654 16.4988 8.36476 14.0969 10.1315 12.8575L8.03976 9.4944C6.14695 10.5311 3.75906 9.94292 2.56906 8.12453Z" fill="url(#paint11_linear)"/>
</g>
<path fill-rule="evenodd" clip-rule="evenodd" d="M25.5416 18.2016C26.7532 17.3005 27.6264 15.9682 27.9354 14.4311H26.3379C26.085 15.3563 25.5556 16.1672 24.844 16.7685L21.7796 10.4718L18.7326 16.6824C17.7754 15.8264 17.1728 14.5805 17.1728 13.1938C17.1728 10.6121 19.2613 8.51912 21.8378 8.51912C23.9869 8.51912 25.7965 9.97504 26.3379 11.9564H27.9354C27.3627 9.10691 24.8503 6.96103 21.8378 6.96103C18.4026 6.96103 15.6177 9.75137 15.6177 13.1938C15.6177 15.1973 16.5611 16.98 18.0271 18.1203L14.3389 25.6378L15.6164 26.6117L19.3175 18.8937C20.0879 19.2362 20.9406 19.4265 21.8378 19.4265C22.7084 19.4265 23.5371 19.2474 24.2892 18.9238L27.9977 26.5554L29.1716 25.6604L25.5416 18.2016ZM23.6072 17.5204L21.7796 13.7592L19.9916 17.488C20.5578 17.7327 21.1819 17.8684 21.8378 17.8684C22.4642 17.8684 23.0617 17.7446 23.6072 17.5204Z" fill="url(#paint12_linear)"/>
<path d="M54.9248 20.3808C53.9164 20.3808 53.009 20.1701 52.2026 19.7484C51.4052 19.3177 50.7772 18.722 50.319 17.9611C49.8606 17.2004 49.6316 16.3388 49.6316 15.3764C49.6316 14.414 49.8606 13.5525 50.319 12.7916C50.7772 12.031 51.4052 11.4398 52.2026 11.0181C53.009 10.5874 53.9164 10.3719 54.9248 10.3719C55.8047 10.3719 56.5974 10.5278 57.3033 10.8393C58.009 11.151 58.5957 11.6002 59.0631 12.1867L57.3308 13.754C56.7074 13.0026 55.9512 12.6267 55.0623 12.6267C54.5398 12.6267 54.0724 12.7414 53.6599 12.9704C53.2565 13.1996 52.9403 13.525 52.7113 13.9465C52.4913 14.359 52.3813 14.8357 52.3813 15.3764C52.3813 15.9173 52.4913 16.3985 52.7113 16.82C52.9403 17.2324 53.2565 17.5534 53.6599 17.7824C54.0724 18.0116 54.5398 18.1261 55.0623 18.1261C55.9512 18.1261 56.7074 17.7504 57.3308 16.9987L59.0631 18.566C58.5957 19.1527 58.009 19.6019 57.3033 19.9134C56.5974 20.2251 55.8047 20.3808 54.9248 20.3808Z" fill="white"/>
<path d="M70.2042 16.7375V20.1884H67.4819V16.6963L63.8111 10.5644H66.6845L68.9668 14.3865L71.249 10.5644H73.8888L70.2042 16.7375Z" fill="white"/>
<path d="M86.7496 15.1702C87.2996 15.3627 87.7303 15.6652 88.042 16.0776C88.3535 16.481 88.5095 16.9713 88.5095 17.5487C88.5095 18.3921 88.1703 19.0428 87.4921 19.501C86.8137 19.9594 85.833 20.1884 84.5499 20.1884H79.3529V10.5644H84.2749C85.503 10.5644 86.4379 10.7936 87.0796 11.2519C87.7211 11.7011 88.042 12.3105 88.042 13.0804C88.042 13.5389 87.9273 13.9513 87.6983 14.3178C87.4783 14.6753 87.1621 14.9595 86.7496 15.1702ZM82.0476 12.5305V14.3865H83.9174C84.8339 14.3865 85.2923 14.075 85.2923 13.4516C85.2923 12.8377 84.8339 12.5305 83.9174 12.5305H82.0476ZM84.3299 18.2224C85.2831 18.2224 85.7598 17.8971 85.7598 17.2462C85.7598 16.5955 85.2831 16.2701 84.3299 16.2701H82.0476V18.2224H84.3299Z" fill="white"/>
<path d="M102.458 18.0849V20.1884H94.7313V10.5644H102.279V12.668H97.426V14.2903H101.702V16.3251H97.426V18.0849H102.458Z" fill="white"/>
<path d="M112.988 17.6312H111.503V20.1884H108.781V10.5644H113.18C114.051 10.5644 114.807 10.7112 115.449 11.0044C116.09 11.2886 116.585 11.7011 116.933 12.2418C117.282 12.7734 117.456 13.4014 117.456 14.1253C117.456 14.822 117.291 15.4314 116.961 15.9539C116.64 16.4673 116.177 16.8705 115.572 17.1637L117.648 20.1884H114.734L112.988 17.6312ZM114.706 14.1253C114.706 13.6763 114.564 13.3279 114.28 13.0804C113.996 12.8329 113.574 12.7092 113.015 12.7092H111.503V15.5277H113.015C113.574 15.5277 113.996 15.4087 114.28 15.1702C114.564 14.9227 114.706 14.5745 114.706 14.1253Z" fill="white"/>
<path d="M139.031 18.3186H134.962L134.205 20.1884H131.428L135.676 10.5644H138.357L142.619 20.1884H139.787L139.031 18.3186ZM138.234 16.3113L136.996 13.2317L135.759 16.3113H138.234Z" fill="white"/>
<path d="M152.867 20.3808C151.859 20.3808 150.952 20.1701 150.145 19.7484C149.348 19.3177 148.72 18.722 148.262 17.9611C147.803 17.2004 147.574 16.3388 147.574 15.3764C147.574 14.414 147.803 13.5525 148.262 12.7916C148.72 12.031 149.348 11.4398 150.145 11.0181C150.952 10.5874 151.859 10.3719 152.867 10.3719C153.747 10.3719 154.54 10.5278 155.246 10.8393C155.952 11.151 156.538 11.6002 157.006 12.1867L155.273 13.754C154.65 13.0026 153.894 12.6267 153.005 12.6267C152.482 12.6267 152.015 12.7414 151.602 12.9704C151.199 13.1996 150.883 13.525 150.654 13.9465C150.434 14.359 150.324 14.8357 150.324 15.3764C150.324 15.9173 150.434 16.3985 150.654 16.82C150.883 17.2324 151.199 17.5534 151.602 17.7824C152.015 18.0116 152.482 18.1261 153.005 18.1261C153.894 18.1261 154.65 17.7504 155.273 16.9987L157.006 18.566C156.538 19.1527 155.952 19.6019 155.246 19.9134C154.54 20.2251 153.747 20.3808 152.867 20.3808Z" fill="white"/>
<path d="M164.999 12.723H162.043V10.5644H170.664V12.723H167.721V20.1884H164.999V12.723Z" fill="white"/>
<path d="M176.49 10.5644H179.212V20.1884H176.49V10.5644Z" fill="white"/>
<path d="M195.696 10.5644L191.571 20.1884H188.89L184.779 10.5644H187.721L190.333 16.8338L193.001 10.5644H195.696Z" fill="white"/>
<path d="M208.798 18.0849V20.1884H201.071V10.5644H208.62V12.668H203.765V14.2903H208.042V16.3251H203.765V18.0849H208.798Z" fill="white"/>
<defs>
<linearGradient id="paint0_linear" x1="32.5027" y1="0.940513" x2="16.2799" y2="31.3806" gradientUnits="userSpaceOnUse">
<stop stop-color="#6C4CDF"/>
<stop offset="1" stop-color="#7ED8FF"/>
</linearGradient>
<linearGradient id="paint1_linear" x1="32.5027" y1="0.940513" x2="16.2799" y2="31.3806" gradientUnits="userSpaceOnUse">
<stop stop-color="#6C4CDF"/>
<stop offset="1" stop-color="#7ED8FF"/>
</linearGradient>
<linearGradient id="paint2_linear" x1="32.5027" y1="0.940513" x2="16.2799" y2="31.3806" gradientUnits="userSpaceOnUse">
<stop stop-color="#6C4CDF"/>
<stop offset="1" stop-color="#7ED8FF"/>
</linearGradient>
<linearGradient id="paint3_linear" x1="32.5027" y1="0.940513" x2="16.2799" y2="31.3806" gradientUnits="userSpaceOnUse">
<stop stop-color="#6C4CDF"/>
<stop offset="1" stop-color="#7ED8FF"/>
</linearGradient>
<linearGradient id="paint4_linear" x1="32.5027" y1="0.940513" x2="16.2799" y2="31.3806" gradientUnits="userSpaceOnUse">
<stop stop-color="#6C4CDF"/>
<stop offset="1" stop-color="#7ED8FF"/>
</linearGradient>
<linearGradient id="paint5_linear" x1="32.5027" y1="0.940513" x2="16.2799" y2="31.3806" gradientUnits="userSpaceOnUse">
<stop stop-color="#6C4CDF"/>
<stop offset="1" stop-color="#7ED8FF"/>
</linearGradient>
<linearGradient id="paint6_linear" x1="7.73234" y1="3.67896" x2="16.025" y2="43.0326" gradientUnits="userSpaceOnUse">
<stop stop-color="#FFD466"/>
<stop offset="0.489583" stop-color="#EE909E"/>
<stop offset="1" stop-color="#7953D9"/>
</linearGradient>
<linearGradient id="paint7_linear" x1="7.73234" y1="3.67896" x2="16.025" y2="43.0326" gradientUnits="userSpaceOnUse">
<stop stop-color="#FFD466"/>
<stop offset="0.489583" stop-color="#EE909E"/>
<stop offset="1" stop-color="#7953D9"/>
</linearGradient>
<linearGradient id="paint8_linear" x1="7.73234" y1="3.67896" x2="16.025" y2="43.0326" gradientUnits="userSpaceOnUse">
<stop stop-color="#FFD466"/>
<stop offset="0.489583" stop-color="#EE909E"/>
<stop offset="1" stop-color="#7953D9"/>
</linearGradient>
<linearGradient id="paint9_linear" x1="7.73234" y1="3.67896" x2="16.025" y2="43.0326" gradientUnits="userSpaceOnUse">
<stop stop-color="#FFD466"/>
<stop offset="0.489583" stop-color="#EE909E"/>
<stop offset="1" stop-color="#7953D9"/>
</linearGradient>
<linearGradient id="paint10_linear" x1="7.73234" y1="3.67896" x2="16.025" y2="43.0326" gradientUnits="userSpaceOnUse">
<stop stop-color="#FFD466"/>
<stop offset="0.489583" stop-color="#EE909E"/>
<stop offset="1" stop-color="#7953D9"/>
</linearGradient>
<linearGradient id="paint11_linear" x1="7.73234" y1="3.67896" x2="16.025" y2="43.0326" gradientUnits="userSpaceOnUse">
<stop stop-color="#FFD466"/>
<stop offset="0.489583" stop-color="#EE909E"/>
<stop offset="1" stop-color="#7953D9"/>
</linearGradient>
<linearGradient id="paint12_linear" x1="16.8188" y1="7.65787" x2="24.5106" y2="29.2562" gradientUnits="userSpaceOnUse">
<stop stop-color="#FFD466"/>
<stop offset="0.489583" stop-color="#EE909E"/>
<stop offset="1" stop-color="#7953D9"/>
</linearGradient>
</defs>
</svg>
