<svg width="44" height="30.000000000000004" xmlns="http://www.w3.org/2000/svg">
 <mask height="27" width="44" y="0" x="0" maskUnits="userSpaceOnUse" id="mask0">
  <path id="svg_1" fill="#C4C4C4" d="m12.8774,26.7955l3.2397,-6.6457l0.2556,-0.5752l0.2928,-0.7322l10.2991,0l0.2775,0.7322l0.2075,0.5761l3.2363,6.5976l12.6226,0.0472l0,-26.7955l-20.2483,0.00144l-2.6068,-0.00144l-20.25125,0l0,26.7483l12.67525,0.0472z"/>
 </mask>
 <defs>
  <linearGradient y2="1.145908" x2="0.01833" y1="-2.071145" x1="2.902537" id="paint0_linear">
   <stop stop-color="#6C4CDF"/>
   <stop stop-color="#7ED8FF" offset="1"/>
  </linearGradient>
  <linearGradient y2="2.673233" x2="0.617642" y1="0.016386" x1="2.055399" id="paint1_linear">
   <stop stop-color="#6C4CDF"/>
   <stop stop-color="#7ED8FF" offset="1"/>
  </linearGradient>
  <linearGradient y2="1.613053" x2="1.239299" y1="-1.341894" x1="4.251478" id="paint2_linear">
   <stop stop-color="#6C4CDF"/>
   <stop stop-color="#7ED8FF" offset="1"/>
  </linearGradient>
  <linearGradient y2="1.145908" x2="-0.973491" y1="-2.071145" x1="1.910767" id="paint3_linear">
   <stop stop-color="#6C4CDF"/>
   <stop stop-color="#7ED8FF" offset="1"/>
  </linearGradient>
  <linearGradient y2="2.673233" x2="-0.59226" y1="0.016386" x1="0.845499" id="paint4_linear">
   <stop stop-color="#6C4CDF"/>
   <stop stop-color="#7ED8FF" offset="1"/>
  </linearGradient>
  <linearGradient y2="1.613053" x2="-2.281175" y1="-1.341894" x1="0.731005" id="paint5_linear">
   <stop stop-color="#6C4CDF"/>
   <stop stop-color="#7ED8FF" offset="1"/>
  </linearGradient>
  <linearGradient y2="1.221316" x2="-0.059042" y1="0.035461" x1="-0.450891" id="paint6_linear">
   <stop stop-color="#FFD466"/>
   <stop stop-color="#EE909E" offset="0.489583"/>
   <stop stop-color="#7953D9" offset="1"/>
  </linearGradient>
  <linearGradient y2="2.90223" x2="-1.973575" y1="-0.267387" x1="-2.888086" id="paint7_linear">
   <stop stop-color="#FFD466"/>
   <stop stop-color="#EE909E" offset="0.489583"/>
   <stop stop-color="#7953D9" offset="1"/>
  </linearGradient>
  <linearGradient y2="3.405856" x2="-2.084632" y1="-0.433738" x1="-3.073214" id="paint8_linear">
   <stop stop-color="#FFD466"/>
   <stop stop-color="#EE909E" offset="0.489583"/>
   <stop stop-color="#7953D9" offset="1"/>
  </linearGradient>
  <linearGradient y2="1.221316" x2="0.51123" y1="0.035461" x1="0.119382" id="paint9_linear">
   <stop stop-color="#FFD466"/>
   <stop stop-color="#EE909E" offset="0.489583"/>
   <stop stop-color="#7953D9" offset="1"/>
  </linearGradient>
  <linearGradient y2="2.90223" x2="1.695074" y1="-0.267387" x1="0.780563" id="paint10_linear">
   <stop stop-color="#FFD466"/>
   <stop stop-color="#EE909E" offset="0.489583"/>
   <stop stop-color="#7953D9" offset="1"/>
  </linearGradient>
  <linearGradient y2="3.405856" x2="1.702572" y1="-0.433738" x1="0.713993" id="paint11_linear">
   <stop stop-color="#FFD466"/>
   <stop stop-color="#EE909E" offset="0.489583"/>
   <stop stop-color="#7953D9" offset="1"/>
  </linearGradient>
  <linearGradient y2="1.134576" x2="0.685762" y1="0.035461" x1="0.167191" id="paint12_linear">
   <stop stop-color="#FFD466"/>
   <stop stop-color="#EE909E" offset="0.489583"/>
   <stop stop-color="#7953D9" offset="1"/>
  </linearGradient>
 </defs>
 <g>
  <title>background</title>
  <rect fill="none" id="canvas_background" height="402" width="582" y="-1" x="-1"/>
 </g>
 <g>
  <title>Layer 1</title>
  <path id="svg_2" fill="url(#paint0_linear)" d="m16.1768,26.938c2.6772,1.8299 5.1303,2.9361 5.2422,2.9862c0.1125,0.0504 0.2333,0.0758 0.3538,0.0758l0.0287,-9.0659c-0.8657,0 -1.699,-0.1391 -2.4784,-0.3962l-3.1463,6.4001z"/>
  <path id="svg_3" fill="url(#paint1_linear)" d="m20.5942,0.75278l-10.66624,3.19986c-0.3664,0.10988 -0.61717,0.44709 -0.61717,0.82954l4.62411,7.42782c0.3675,-3.58441 3.129,-6.45965 6.6593,-7.00041l0,-4.45681z"/>
  <path id="svg_4" fill="url(#paint2_linear)" d="m11.3071,22.5856c0.6485,0.8276 1.4561,1.6572 2.4132,2.4797l1.2708,-2.607l-4.8132,-7.6944c0,0 -0.78272,0.8717 -0.51779,2.1c0.35579,1.6494 1.83039,3.0828 1.83039,3.0828l-1.51677,0.4837c0.32567,0.7174 0.77057,1.437 1.33337,2.1552z"/>
  <path id="svg_5" fill="url(#paint3_linear)" d="m27.38,26.938c-2.6772,1.8299 -5.1303,2.9361 -5.2421,2.9862c-0.1126,0.0504 -0.2334,0.0758 -0.3539,0.0758l-0.0286,-9.0659c0.8656,0 1.6989,-0.1391 2.4783,-0.3962l3.1463,6.4001z"/>
  <path id="svg_6" fill="url(#paint4_linear)" d="m22.9626,0.75278l10.6663,3.19986c0.3664,0.10988 0.6171,0.44709 0.6171,0.82954l-4.6241,7.42782c-0.3675,-3.58441 -3.129,-6.45965 -6.6593,-7.00041l0,-4.45681z"/>
  <path id="svg_7" fill="url(#paint5_linear)" d="m32.2497,22.5856c-0.6484,0.8276 -1.4561,1.6572 -2.4131,2.4797l-1.2709,-2.607l4.8132,-7.6944c0,0 0.7827,0.8717 0.5178,2.1c-0.3558,1.6494 -1.8304,3.0828 -1.8304,3.0828l1.5168,0.4837c-0.3256,0.7174 -0.7706,1.437 -1.3334,2.1552z"/>
  <g id="svg_8" mask="url(#mask0)">
   <path id="svg_9" fill="url(#paint6_linear)" d="m34.6821,6.22522l-0.5462,0.8782l0.1317,0.08197l1.8127,1.12743l0.1318,0.08197l0.5462,-0.8782l-0.6078,-0.37807l-0.8606,-0.53523l-0.6078,-0.37807zm2.7003,-0.13749l-1.0717,0.91414l-0.969,-0.60268l0.346,-1.36549l2.7497,-2.53156l-1.055,3.58559zm-3.2429,1.30369l-3.2349,5.20118l1.8127,1.1275l3.2349,-5.20125l-1.8127,-1.12743zm-3.3472,5.38178l1.8127,1.1274l0.1317,0.082l-0.5342,0.859l-0.1693,-0.1052l-1.7378,-1.0809l-0.1692,-0.1052l0.5343,-0.8591l0.1318,0.082zm-0.6119,1.0671l-12.1104,19.4714l1.7379,1.0809l12.1104,-19.4714l-1.7379,-1.0809zm-10.3159,20.9351l-0.2125,-0.1322l-1.7379,-1.0809l-0.2125,-0.1321l-0.4271,0.6867l0.2717,0.169c-0.2326,0.4398 -0.0883,0.991 0.3407,1.2578c0.4289,0.2668 0.9871,0.1525 1.2788,-0.2506l0.2717,0.169l0.4271,-0.6867z" clip-rule="evenodd" fill-rule="evenodd"/>
   <path id="svg_10" fill="url(#paint7_linear)" d="m41.2502,7.83035c1.2675,2.23665 1.304,5.07855 -0.1493,7.41525c-1.4533,2.3367 -4.0186,3.5604 -6.5851,3.4124c-0.1765,0.2501 -0.3763,0.4753 -0.5947,0.6743c0.6862,0.1 1.3783,0.1082 2.0582,0.0289l0.2364,-0.3801l0.4117,0.2773c0.2749,-0.0552 0.5467,-0.125 0.8144,-0.209l-0.0752,-0.3088l0.3028,0.2336c1.653,-0.5738 3.1276,-1.6965 4.1237,-3.2981c0.9961,-1.6016 1.3511,-3.4206 1.135,-5.157l-0.3434,-0.1682l0.3102,-0.0691c-0.043,-0.2772 -0.1006,-0.55194 -0.1726,-0.82294l-0.4307,-0.24664l0.2364,-0.38009c-0.2295,-0.64494 -0.5429,-1.26203 -0.9359,-1.83332c-0.082,0.28386 -0.1956,0.56266 -0.3419,0.83154z" clip-rule="evenodd" fill-rule="evenodd"/>
   <path id="svg_11" fill="url(#paint8_linear)" d="m41.0742,8.12453c1.1352,2.12177 1.1375,4.77457 -0.2247,6.96467c-1.3621,2.1902 -3.7427,3.361 -6.1476,3.2809c1.1048,-1.8713 0.5766,-4.2732 -1.1901,-5.5126l2.0917,-3.3631c1.8928,1.0367 4.2807,0.44852 5.4707,-1.36987z"/>
   <path id="svg_12" fill="url(#paint9_linear)" d="m8.96122,6.22522l0.5462,0.8782l-0.13179,0.08197l-1.8127,1.12743l-0.13179,0.08197l-0.54621,-0.8782l0.60787,-0.37807l0.86054,-0.53523l0.60788,-0.37807zm-2.70038,-0.13749l1.07176,0.91414l0.96901,-0.60268l-0.34608,-1.36549l-2.74966,-2.53156l1.05497,3.58559zm3.24293,1.30369l3.23493,5.20118l-1.8127,1.1275l-3.23493,-5.20125l1.8127,-1.12743zm3.34723,5.38178l-1.8127,1.1274l-0.1318,0.082l0.5343,0.859l0.1692,-0.1052l1.7379,-1.0809l0.1692,-0.1052l-0.5343,-0.8591l-0.1318,0.082zm0.6118,1.0671l12.1105,19.4714l-1.7379,1.0809l-12.1104,-19.4714l1.7378,-1.0809zm10.316,20.9351l0.2125,-0.1322l1.7379,-1.0809l0.2124,-0.1321l0.4272,0.6867l-0.2717,0.169c0.2326,0.4398 0.0883,0.991 -0.3407,1.2578c-0.4289,0.2668 -0.9872,0.1525 -1.2788,-0.2506l-0.2717,0.169l-0.4271,-0.6867z" clip-rule="evenodd" fill-rule="evenodd"/>
   <path id="svg_13" fill="url(#paint10_linear)" d="m2.39313,7.83035c-1.26753,2.23665 -1.30406,5.07855 0.14927,7.41525c1.45332,2.3367 4.01855,3.5604 6.58509,3.4124c0.17648,0.2501 0.37632,0.4753 0.59467,0.6743c-0.68619,0.1 -1.37824,0.1082 -2.05819,0.0289l-0.2364,-0.3801l-0.41168,0.2773c-0.27488,-0.0552 -0.54675,-0.125 -0.81439,-0.209l0.07514,-0.3088l-0.30273,0.2336c-1.65302,-0.5738 -3.1276,-1.6965 -4.12372,-3.2981c-0.99612,-1.6016 -1.35115,-3.4206 -1.13502,-5.157l0.34341,-0.1682l-0.31022,-0.0691c0.04301,-0.2772 0.10063,-0.55194 0.17257,-0.82294l0.43074,-0.24664l-0.23639,-0.38009c0.22951,-0.64494 0.54288,-1.26203 0.93591,-1.83332c0.08202,0.28386 0.19562,0.56266 0.34194,0.83154z" clip-rule="evenodd" fill-rule="evenodd"/>
   <path id="svg_14" fill="url(#paint11_linear)" d="m2.56906,8.12453c-1.13517,2.12177 -1.13749,4.77457 0.22469,6.96467c1.36217,2.1902 3.74269,3.361 6.14766,3.2809c-1.10487,-1.8713 -0.57665,-4.2732 1.19009,-5.5126l-2.09174,-3.3631c-1.89281,1.0367 -4.2807,0.44852 -5.4707,-1.36987z"/>
  </g>
  <path id="svg_15" fill="url(#paint12_linear)" d="m25.5416,18.2016c1.2116,-0.9011 2.0848,-2.2334 2.3938,-3.7705l-1.5975,0c-0.2529,0.9252 -0.7823,1.7361 -1.4939,2.3374l-3.0644,-6.2967l-3.047,6.2106c-0.9572,-0.856 -1.5598,-2.1019 -1.5598,-3.4886c0,-2.5817 2.0885,-4.67468 4.665,-4.67468c2.1491,0 3.9587,1.45592 4.5001,3.43728l1.5975,0c-0.5727,-2.84949 -3.0851,-4.99537 -6.0976,-4.99537c-3.4352,0 -6.2201,2.79034 -6.2201,6.23277c0,2.0035 0.9434,3.7862 2.4094,4.9265l-3.6882,7.5175l1.2775,0.9739l3.7011,-7.718c0.7704,0.3425 1.6231,0.5328 2.5203,0.5328c0.8706,0 1.6993,-0.1791 2.4514,-0.5027l3.7085,7.6316l1.1739,-0.895l-3.63,-7.4588zm-1.9344,-0.6812l-1.8276,-3.7612l-1.788,3.7288c0.5662,0.2447 1.1903,0.3804 1.8462,0.3804c0.6264,0 1.2239,-0.1238 1.7694,-0.348z" clip-rule="evenodd" fill-rule="evenodd"/>
 </g>
</svg>