<svg width="14" height="13" viewBox="0 0 14 13" fill="none" xmlns="http://www.w3.org/2000/svg">
<path d="M0.841477 5.41601C0.898762 5.40671 0.956735 5.40242 1.01474 5.40317H10.8915L10.6761 5.303C10.4656 5.20337 10.2741 5.06776 10.1101 4.90233L7.34046 2.13265C6.97569 1.78443 6.91439 1.22427 7.19521 0.805402C7.52205 0.359054 8.14882 0.26214 8.5952 0.588974C8.63126 0.615394 8.66554 0.644192 8.69775 0.675182L13.7062 5.68365C14.0976 6.07462 14.098 6.70885 13.707 7.10026C13.7067 7.10051 13.7065 7.10079 13.7062 7.10104L8.69775 12.1095C8.30603 12.5001 7.6718 12.4993 7.28114 12.1075C7.2504 12.0767 7.2217 12.0439 7.19521 12.0093C6.91439 11.5905 6.97569 11.0303 7.34046 10.6821L10.1051 7.90741C10.2521 7.76028 10.4211 7.63692 10.606 7.54179L10.9065 7.40656H1.06986C0.558155 7.42556 0.109209 7.06811 0.0130777 6.56514C-0.0754786 6.01906 0.295399 5.50459 0.841477 5.41601Z" fill="white"/>
</svg>
